

<svg
      width="939"
      height="807"
      viewBox="0 0 939 807"
      fill="none"
      xmlns="http://www.w3.org/2000/svg"
    >
      <style type="text/css" >
      <![CDATA[
        #birds {
  animation-name: floating;
  animation-iteration-count: infinite;
  animation-duration: 6s;
  animation-timing-function: ease-in-out;
  margin-left: 30px;
  margin-top: 20px;
}

#leaves {
  animation-name: wind;
  animation-iteration-count: infinite;
  animation-duration: 3s;
  animation-timing-function: ease-in-out;
  margin-left: 30px;
  margin-top: 20px;
  transform-origin: center;
}

#hair {
  animation-name: windhair;
  animation-iteration-count: infinite;
  animation-duration: 3s;
  animation-timing-function: ease-in-out;
  margin-left: 30px;
  margin-top: 20px;
  transform-origin: center;
  transform-box: fill-box;
}

#code {
  animation-name: coding;
  animation-iteration-count: infinite;
  animation-duration: 3s;
  animation-timing-function: linear;
}

@keyframes floating {
  from {
    transform: translate(0, 0);
  }
  35% {
    transform: translate(10px, 10px);
  }
  65% {
    transform: translate(15px, -10px);
  }
  to {
    transform: translate(0, 0px);
  }
}

@keyframes wind {
  from {
    transform: rotate(0);
  }
  65% {
    transform: rotate(1deg);
  }
  to {
    transform: rotate(0);
  }
}

@keyframes windhair {
  from {
    transform: rotate(0);
  }
  65% {
    transform: rotate(5deg);
  }
  to {
    transform: rotate(0);
  }
}

@keyframes coding {
  from {
    transform: translate(0, 0);
  }
  to {
    transform: translate(-3px, -148px);
  }
}

        }
      ]]>
  </style>
      
      <g id="undraw_working_from_anywhere_ub67 1" clip-path="url(#clip0)">
        <ellipse
          id="Ellipse 1"
          cx="540.548"
          cy="406.106"
          rx="343.987"
          ry="419.985"
          transform="rotate(-27.3664 540.548 406.106)"
          fill="#C6F0FA"
        />
        <g id="sun">
          <path
            id="Vector"
            d="M825.365 163.731C866.988 163.731 900.731 129.988 900.731 88.3653C900.731 46.7422 866.988 13 825.365 13C783.742 13 750 46.7422 750 88.3653C750 129.988 783.742 163.731 825.365 163.731Z"
            fill="#FF7C33"
          />
        </g>
        <g id="bar">
          <rect
            id="Rectangle 3"
            x="317"
            y="380.5"
            width="143"
            height="5"
            fill="#ADADAD"
          />
          <path id="Rectangle 1" d="M323 372H334V619H323V372Z" fill="#843921" />
          <path
            id="Rectangle 2"
            d="M443 372.5H454V619.5H443V372.5Z"
            fill="#843921"
          />
        </g>
        <g id="notebook">
          <path
            id="Vector_2"
            d="M653.613 718.493H456.606C454.854 718.493 453.174 717.797 451.935 716.558C450.696 715.319 450 713.639 450 711.887V711.887C521.415 703.587 591.488 703.587 660.219 711.887C660.219 713.639 659.523 715.319 658.284 716.558C657.045 717.797 655.365 718.493 653.613 718.493Z"
            fill="#2F2E41"
          />
          <path
            id="Vector_3"
            d="M660.219 712.275L450 711.887L474.364 670.892L474.48 670.698V580.35C474.48 579.254 474.696 578.168 475.116 577.155C475.535 576.142 476.15 575.221 476.926 574.446C477.701 573.67 478.622 573.055 479.635 572.635C480.648 572.216 481.734 572 482.831 572H626.222C627.319 572 628.405 572.216 629.418 572.635C630.431 573.055 631.352 573.67 632.127 574.446C632.903 575.221 633.518 576.142 633.937 577.155C634.357 578.168 634.573 579.254 634.573 580.35V671.32L660.219 712.275Z"
            fill="#7A7474"
          />
          <path
            id="Vector_4"
            d="M482.314 577.992C481.59 577.992 480.896 578.28 480.384 578.791C479.872 579.302 479.584 579.995 479.583 580.717V663.266C479.584 663.989 479.872 664.681 480.384 665.192C480.896 665.703 481.59 665.991 482.314 665.992H627.852C628.576 665.991 629.27 665.703 629.782 665.192C630.294 664.681 630.582 663.989 630.583 663.266V580.717C630.582 579.995 630.294 579.302 629.782 578.791C629.27 578.28 628.576 577.992 627.852 577.992L482.314 577.992Z"
            fill="#333333"
          />
          <path
            id="Vector_5"
            d="M483.593 676.527C483.37 676.527 483.152 676.591 482.964 676.711C482.777 676.831 482.627 677.003 482.534 677.205L475.027 693.525C474.945 693.703 474.909 693.898 474.923 694.093C474.936 694.288 474.998 694.477 475.104 694.641C475.209 694.806 475.355 694.941 475.526 695.035C475.698 695.129 475.89 695.178 476.085 695.178H633.958C634.156 695.178 634.352 695.127 634.525 695.031C634.699 694.934 634.845 694.794 634.949 694.625C635.054 694.456 635.113 694.263 635.122 694.065C635.131 693.866 635.089 693.669 635 693.491L626.84 677.171C626.744 676.977 626.595 676.814 626.411 676.7C626.227 676.586 626.014 676.526 625.798 676.527L483.593 676.527Z"
            fill="#2F2E41"
          />
          <path
            id="Vector_6"
            d="M554.527 576.469C555.492 576.469 556.275 575.686 556.275 574.72C556.275 573.754 555.492 572.971 554.527 572.971C553.561 572.971 552.778 573.754 552.778 574.72C552.778 575.686 553.561 576.469 554.527 576.469Z"
            fill="white"
          />
          <path
            id="Vector_7"
            d="M539.009 698.287C538.753 698.287 538.504 698.372 538.3 698.528C538.097 698.683 537.95 698.902 537.883 699.149L536 706.144C535.954 706.316 535.948 706.498 535.982 706.673C536.017 706.849 536.092 707.014 536.201 707.156C536.309 707.298 536.45 707.413 536.61 707.492C536.77 707.571 536.947 707.612 537.126 707.612H572.938C573.124 707.612 573.307 707.568 573.472 707.483C573.638 707.398 573.78 707.274 573.888 707.123C573.996 706.971 574.066 706.797 574.092 706.613C574.118 706.429 574.1 706.241 574.04 706.065L571.619 699.071C571.539 698.842 571.39 698.643 571.193 698.503C570.996 698.362 570.759 698.287 570.517 698.287H539.009Z"
            fill="#2F2E41"
          />
          <path
            id="Vector_8"
            d="M634.573 669.338V670.893H474.364L474.484 670.698V669.338H634.573Z"
            fill="#2F2E41"
          />
        </g>
        <g id="plants">
          <path
            id="Vector_9"
            d="M918.607 618.629C918.264 631.458 916.115 644.174 912.224 656.403C912.135 656.687 912.042 656.967 911.949 657.25H888.127C888.152 656.996 888.178 656.712 888.203 656.403C889.792 638.143 898.949 527.006 888 508C888.957 509.542 920.454 560.608 918.607 618.629Z"
            fill="#62FF57"
          />
          <path
            id="Vector_10"
            d="M909.489 626.61C909.29 626.894 909.082 627.178 908.871 627.457H891C891.136 627.216 891.292 626.932 891.474 626.61C894.427 621.282 903.165 605.351 911.276 588.836C919.994 571.088 927.991 552.667 927.317 546C927.525 547.504 933.556 593.343 909.489 626.61Z"
            fill="#62FF57"
          />
          <path
            id="Vector_11"
            d="M229.1 573.795C229.54 590.237 232.295 606.536 237.282 622.21C237.396 622.574 237.515 622.932 237.635 623.296H268.167C268.135 622.971 268.102 622.607 268.069 622.21C266.034 598.806 254.296 456.36 268.33 432C267.103 433.976 226.733 499.428 229.1 573.795Z"
            fill="#62FF57"
          />
          <path
            id="Vector_12"
            d="M222.901 620.319C223.156 620.683 223.422 621.047 223.694 621.405H246.599C246.425 621.096 246.224 620.732 245.991 620.319C242.207 613.49 231.007 593.071 220.61 571.904C209.437 549.156 199.187 525.545 200.051 517C199.784 518.927 192.054 577.68 222.901 620.319Z"
            fill="#62FF57"
          />
        </g>
        <g id="body">
          <path
            id="Vector_13"
            opacity="0.2"
            d="M809.166 706.704C806.97 705.868 805.007 704.517 803.442 702.765C801.876 701.013 800.753 698.911 800.168 696.636C799.583 694.361 799.552 691.978 800.077 689.688C800.603 687.398 801.671 685.268 803.19 683.476L822.207 661.045L835.517 668.533L828.663 696.476C828.167 698.498 827.247 700.391 825.964 702.03C824.681 703.67 823.064 705.018 821.22 705.985C819.377 706.952 817.349 707.517 815.27 707.641C813.192 707.765 811.111 707.445 809.166 706.704Z"
            fill="black"
          />
          <path
            id="Vector_14"
            d="M809.166 703.377C806.97 702.54 805.007 701.189 803.442 699.438C801.876 697.686 800.753 695.584 800.168 693.308C799.583 691.033 799.552 688.65 800.077 686.36C800.603 684.071 801.671 681.94 803.19 680.148L822.207 657.718L835.517 665.205L828.663 693.148C828.167 695.17 827.247 697.063 825.964 698.703C824.681 700.342 823.064 701.69 821.22 702.658C819.377 703.625 817.349 704.189 815.27 704.313C813.192 704.437 811.111 704.118 809.166 703.377V703.377Z"
            fill="#FFB8B8"
          />
          <path
            id="Vector_15"
            opacity="0.2"
            d="M826.783 548.324L836.766 598.238L828.555 627.43L826.783 548.324Z"
            fill="black"
          />
          <path
            id="Vector_16"
            d="M742.345 731.757L745.672 704.304L839.677 680.179L828.862 647.735C836.395 626.128 849.621 615.535 873.785 626.106L915.349 651.926C919.388 654.435 922.679 657.984 924.877 662.201C927.075 666.418 928.099 671.148 927.842 675.896V675.896C927.588 680.664 926.051 685.274 923.395 689.24C920.738 693.207 917.059 696.382 912.747 698.431C866.217 720.487 806.912 728.927 742.345 731.757Z"
            fill="#FFB8B8"
          />
          <path
            id="Vector_17"
            d="M748.168 740.076L719.052 735.916L691.819 741.474C690.15 741.815 688.428 741.789 686.77 741.398C685.112 741.008 683.559 740.262 682.218 739.213C680.877 738.164 679.78 736.836 679.002 735.321C678.224 733.806 677.785 732.14 677.714 730.439V730.439C677.635 728.536 678.019 726.642 678.833 724.92C679.647 723.199 680.867 721.7 682.388 720.554L725.063 688.402C728.723 685.645 733.246 684.282 737.82 684.559C742.394 684.835 746.719 686.733 750.02 689.912L760.647 700.145C753.042 704.862 747.388 711.94 744.009 721.774C751.317 725.792 752.703 731.892 748.168 740.076Z"
            fill="#2F2E41"
          />
          <path
            id="Vector_18"
            d="M775.977 451.855C790.849 451.855 802.904 439.799 802.904 424.927C802.904 410.056 790.849 398 775.977 398C761.106 398 749.05 410.056 749.05 424.927C749.05 439.799 761.106 451.855 775.977 451.855Z"
            fill="#FFB8B8"
          />
          <path
            id="Vector_19"
            d="M818.047 478.028L757.735 503.401C762.637 478.789 765.08 456.369 757.735 442.673L796.418 438.097C794.498 448.623 804.285 462.719 818.047 478.028Z"
            fill="#FFB8B8"
          />
          <path
            id="Vector_20"
            d="M715.724 730.925L693.263 729.261C679.503 671.881 672.458 617.646 675.533 568.149C675.968 560.923 679.184 554.146 684.507 549.241C689.831 544.335 696.847 541.682 704.085 541.839C711.039 541.997 717.685 544.741 722.724 549.537L751.77 577.177C764.723 589.408 774.778 604.379 781.2 620.996C789.427 642.542 786.474 654.62 766.835 652.569C754.564 651.201 743.277 645.201 735.281 635.793L714.06 611.132L715.724 730.925Z"
            fill="#FFB8B8"
          />
          <path
            id="Vector_21"
            d="M698.33 799.109C695.386 798.917 692.526 798.05 689.971 796.574C687.416 795.099 685.235 793.055 683.598 790.602C681.96 788.148 680.909 785.35 680.526 782.424C680.144 779.499 680.44 776.525 681.392 773.732L685.776 760.873L689.104 728.429C694.229 717.969 701.489 719.534 709.901 727.597C715.249 727.072 716.397 721.724 715.724 714.287L732.589 736.989C734.032 738.932 734.928 741.226 735.183 743.633C735.438 746.04 735.043 748.471 734.039 750.674L717.066 787.904C715.449 791.452 712.79 794.424 709.444 796.426C706.097 798.427 702.221 799.363 698.33 799.109V799.109Z"
            fill="#2F2E41"
          />
          <path
            id="Vector_22"
            d="M910.804 648.983C880.024 666.453 870.377 666.96 839.677 679.347L813.056 664.373C781.792 675.933 759.861 660.086 736.106 636.505C751.651 610.612 744.776 576.965 754.407 577.44L869.625 613.627L874.617 626.106L910.804 648.983Z"
            fill="#2F2E41"
          />
          <path
            id="Vector_23"
            d="M873.785 621.946C833.102 639.555 789.299 620.912 751.912 579.936L727.156 479.956C726.863 478.855 726.799 477.705 726.968 476.578C727.137 475.451 727.534 474.371 728.137 473.403C728.739 472.436 729.533 471.602 730.47 470.954C731.406 470.305 732.466 469.855 733.584 469.631L762.31 463.886L776.453 486.347L804.737 461.39L834.775 471.21C838.769 472.516 842.333 474.882 845.087 478.056C847.84 481.23 849.68 485.093 850.409 489.231L873.785 621.946Z"
            fill="#6C63FF"
          />
          <path
            id="Vector_24"
            d="M838.845 671.86L818.879 658.55L847.996 581.183L837.181 472.205L847.047 478.371C852.341 481.68 856.908 486.03 860.471 491.157C864.034 496.285 866.518 502.082 867.772 508.198L883.767 586.175C876.769 622.117 865.103 653.74 838.845 671.86Z"
            fill="#6C63FF"
          />
          <path
            id="Vector_25"
            d="M797.376 497.992L797.062 500.291L795.124 514.479L791.951 537.713L791.156 543.531C791.096 543.975 790.876 544.382 790.539 544.676C790.201 544.971 789.768 545.133 789.32 545.133H768.157C767.709 545.134 767.277 544.972 766.939 544.678C766.602 544.384 766.382 543.978 766.32 543.535L765.512 537.713L762.285 514.479L760.313 500.281L759.996 497.996C759.959 497.734 759.979 497.467 760.055 497.213C760.13 496.959 760.259 496.724 760.433 496.524C760.607 496.324 760.822 496.164 761.063 496.054C761.304 495.944 761.566 495.888 761.831 495.888H795.539C795.804 495.888 796.065 495.944 796.306 496.054C796.547 496.164 796.762 496.323 796.936 496.523C797.11 496.722 797.239 496.956 797.315 497.21C797.391 497.463 797.412 497.73 797.376 497.992V497.992Z"
            fill="#E6E6E6"
          />
          <path
            id="Vector_26"
            d="M764.064 489.732H793.416C793.659 489.732 793.9 489.78 794.125 489.873C794.35 489.966 794.554 490.103 794.726 490.275C794.898 490.447 795.035 490.651 795.128 490.876C795.221 491.101 795.269 491.342 795.269 491.586V494.034C795.269 494.526 795.074 494.997 794.726 495.345C794.379 495.692 793.907 495.888 793.416 495.888H764.064C763.573 495.888 763.101 495.692 762.754 495.345C762.406 494.997 762.211 494.526 762.211 494.034V491.586C762.211 491.342 762.259 491.101 762.352 490.876C762.445 490.651 762.582 490.447 762.754 490.275C762.926 490.103 763.13 489.966 763.355 489.873C763.58 489.78 763.821 489.732 764.064 489.732V489.732Z"
            fill="#3F3D56"
          />
          <path
            id="Vector_27"
            d="M800.027 498.966C785.878 500.51 771.602 500.51 757.453 498.966C757.209 498.966 756.968 498.918 756.743 498.825C756.518 498.731 756.314 498.595 756.142 498.423C755.97 498.251 755.833 498.046 755.74 497.822C755.647 497.597 755.599 497.356 755.599 497.112V494.663C755.599 494.42 755.647 494.179 755.74 493.954C755.833 493.729 755.97 493.525 756.142 493.353C756.314 493.181 756.518 493.044 756.743 492.951C756.968 492.858 757.209 492.81 757.453 492.81C771.591 494.548 785.889 494.548 800.027 492.81C800.519 492.81 800.99 493.005 801.338 493.353C801.686 493.7 801.881 494.172 801.881 494.663V497.112C801.881 497.604 801.686 498.075 801.338 498.423C800.99 498.77 800.519 498.966 800.027 498.966V498.966Z"
            fill="#3F3D56"
          />
          <path
            id="Vector_28"
            d="M777.881 527.41C782.299 527.41 785.881 523.828 785.881 519.41C785.881 514.992 782.299 511.41 777.881 511.41C773.463 511.41 769.881 514.992 769.881 519.41C769.881 523.828 773.463 527.41 777.881 527.41Z"
            fill="white"
          />
          <path
            id="Vector_29"
            d="M798.448 536.241C798.691 538.577 798.369 540.939 797.511 543.126C796.653 545.313 795.283 547.262 793.516 548.811C791.748 550.359 789.636 551.46 787.354 552.023C785.073 552.586 782.691 552.593 780.406 552.045L751.812 545.18L752.496 529.924L780.528 523.447C782.557 522.978 784.662 522.946 786.704 523.352C788.745 523.759 790.678 524.594 792.372 525.804C794.066 527.014 795.484 528.57 796.532 530.369C797.579 532.168 798.232 534.17 798.448 536.241V536.241Z"
            fill="#FFB8B8"
          />
          <path
            id="Vector_30"
            d="M759.815 547.908L682.646 549.837C679.861 549.906 677.093 549.368 674.537 548.259C671.981 547.149 669.697 545.496 667.845 543.414C665.993 541.332 664.618 538.871 663.814 536.203C663.011 533.535 662.799 530.723 663.193 527.965V527.965C663.81 523.643 665.885 519.661 669.073 516.678L705.406 482.689C712.145 476.385 720.541 472.134 729.611 470.433L742.345 468.045L749.832 524.614L706.573 519.623L757.319 525.446L759.815 547.908Z"
            fill="#6C63FF"
          />
        </g>
        <g id="hair">
          <path
            id="Vector_31"
            d="M750.348 424.741C750.348 424.741 735.886 376.45 779.719 386.47C786.518 388.024 792.399 392.077 797.083 397.388C797.502 397.852 798.015 398.216 798.586 398.455C799.157 398.693 799.771 398.8 800.386 398.768C807.384 398.749 811.775 424.501 797.81 435.868C797.81 435.868 800.625 420.615 795.42 415.434C794.484 414.557 793.7 413.523 793.102 412.375C789.704 405.362 778.341 403.088 770.51 403.706C766.513 404.022 766.182 411.206 761.753 410.215C751.675 407.959 748.491 419.988 750.348 424.741Z"
            fill="#B56820"
          />
        </g>
        <g id="birds">
          <path
            id="Vector_32"
            d="M390.549 174.173L402.963 164.244C393.319 163.18 389.357 168.44 387.735 172.603C380.202 169.474 372 173.574 372 173.574L396.837 182.591C395.584 179.244 393.403 176.324 390.549 174.173V174.173Z"
            fill="#3F3D56"
          />
          <path
            id="Vector_33"
            d="M764.433 123.067L776.847 113.139C767.203 112.075 763.241 117.334 761.62 121.497C754.086 118.369 745.884 122.469 745.884 122.469L770.721 131.486C769.468 128.139 767.287 125.219 764.433 123.067V123.067Z"
            fill="#3F3D56"
          />
          <path
            id="Vector_34"
            d="M692.952 254.823L705.366 244.894C695.722 243.83 691.76 249.09 690.138 253.252C682.605 250.124 674.403 254.224 674.403 254.224L699.24 263.241C697.987 259.894 695.806 256.974 692.952 254.823V254.823Z"
            fill="#3F3D56"
          />
        </g>
        <g id="leaves">
          <path
            id="Vector_35"
            d="M228.461 453.015C289.38 442.032 320.597 332.363 298.186 208.064C275.775 83.7645 208.223 -8.09609 147.304 2.88744C86.3846 13.871 55.1676 123.539 77.5785 247.839C99.9893 372.138 167.542 463.999 228.461 453.015Z"
            fill="#48C440"
          />
        </g>
        <g id="tree">
          <g id="tree_2">
            <path
              id="Vector_36"
              d="M171.036 183.149C180.895 209.957 189.667 237.13 197.355 264.667C205.027 292.179 211.591 319.969 217.044 348.036C222.498 376.094 226.821 404.34 230.015 432.774C233.193 461.159 235.235 489.64 236.141 518.218C237.041 546.765 236.792 575.317 235.395 603.875C235.223 607.374 235.033 610.872 234.826 614.369C234.616 617.951 240.188 617.938 240.398 614.369C242.082 585.721 242.61 557.037 241.983 528.318C241.352 499.763 239.579 471.264 236.664 442.821C233.741 414.295 229.693 385.913 224.518 357.675C219.34 329.45 213.035 301.462 205.605 273.712C198.179 245.994 189.641 218.606 179.99 191.548C178.813 188.249 177.619 184.955 176.409 181.668C175.181 178.331 169.794 179.773 171.036 183.149V183.149Z"
              fill="#3F3D56"
            />
            <path
              id="Vector_37"
              d="M209.428 288.604L234.112 233.795L241.07 218.347C241.421 217.704 241.513 216.951 241.327 216.243C241.141 215.534 240.692 214.923 240.07 214.535C239.431 214.168 238.673 214.067 237.96 214.254C237.246 214.441 236.635 214.901 236.259 215.535L211.574 270.344L204.617 285.792C204.266 286.435 204.174 287.188 204.359 287.897C204.545 288.605 204.995 289.216 205.616 289.604C206.255 289.971 207.013 290.072 207.727 289.885C208.44 289.698 209.051 289.238 209.428 288.604H209.428Z"
              fill="#3F3D56"
            />
            <path
              id="Vector_38"
              d="M214.882 326.055L158.597 304.951L142.732 299.003C142.02 298.813 141.262 298.911 140.62 299.275C139.979 299.639 139.507 300.24 139.305 300.949C139.125 301.661 139.227 302.415 139.589 303.054C139.952 303.692 140.547 304.166 141.251 304.376L197.537 325.479L213.401 331.427C214.113 331.617 214.871 331.52 215.513 331.156C216.154 330.792 216.626 330.191 216.828 329.481C217.008 328.77 216.906 328.015 216.544 327.377C216.181 326.738 215.586 326.264 214.882 326.055V326.055Z"
              fill="#3F3D56"
            />
          </g>
          <path
            id="Vector_39"
            d="M171.052 625C171.052 625 238.84 602.713 301.986 625Z"
            fill="#E6E6E6"
          />
        </g>
        <g id="guitar-svgrepo-com 1" clip-path="url(#clip1)">
          <path
            id="Vector_40"
            d="M273.334 573.529C273.67 570.222 273.953 564.888 273.02 560.298C270.852 549.634 262.536 542.291 254.483 543.928L250.383 544.762C242.33 546.399 237.541 556.407 239.709 567.07C240.642 571.66 242.986 576.46 244.586 579.373C242.721 583.083 240.114 590.597 242.239 601.052C244.938 614.325 255.288 623.465 265.313 621.427L270.674 620.337C280.698 618.299 286.658 605.843 283.96 592.57C281.834 582.115 276.499 576.216 273.334 573.529Z"
            fill="#FF9811"
          />
          <path
            id="Vector_41"
            d="M273.334 573.529C273.67 570.222 273.953 564.888 273.02 560.298C270.852 549.634 262.536 542.291 254.483 543.928L252.433 544.345L267.993 620.882L270.674 620.337C280.698 618.299 286.658 605.843 283.96 592.57C281.834 582.115 276.499 576.216 273.334 573.529Z"
            fill="#804C09"
          />
          <g id="Group">
            <path
              id="Vector_42"
              d="M268.607 593.274L256.648 595.706L258.258 603.623L270.217 601.192L268.607 593.274Z"
              fill="#50412E"
            />
            <path
              id="Vector_43"
              d="M251.398 523.943L245.419 525.159L255.613 575.304L261.593 574.088L251.398 523.943Z"
              fill="#50412E"
            />
          </g>
          <g id="Group_2">
            <path
              id="Vector_44"
              d="M260.75 585.253C264.052 584.581 266.009 580.492 265.12 576.12C264.231 571.747 260.833 568.746 257.53 569.418C254.228 570.089 252.271 574.178 253.16 578.551C254.049 582.924 257.447 585.924 260.75 585.253Z"
              fill="#282017"
            />
            <path
              id="Vector_45"
              d="M249.828 500.902L237.868 503.333L243.77 532.365L255.73 529.933L249.828 500.902Z"
              fill="#282017"
            />
          </g>
        </g>
        <mask
          id="mask0"
          mask-type="alpha"
          maskUnits="userSpaceOnUse"
          x="480"
          y="579"
          width="151"
          height="88"
        >
          <path
            id="Vector_46"
            d="M482.731 579C482.007 579.001 481.313 579.288 480.801 579.799C480.289 580.31 480.001 581.003 480 581.726V664.274C480.001 664.997 480.289 665.69 480.801 666.201C481.313 666.712 482.007 666.999 482.731 667H628.269C628.993 666.999 629.687 666.712 630.199 666.201C630.711 665.69 630.999 664.997 631 664.274V581.726C630.999 581.003 630.711 580.31 630.199 579.799C629.687 579.288 628.993 579.001 628.269 579L482.731 579Z"
            fill="#333333"
          />
        </mask>
        <g mask="url(#mask0)">
          <g id="code">
            <path
              id="Vector_47"
              d="M494.826 741.976C506.335 741.83 517.842 741.58 529.35 741.39C533.187 741.327 537.024 741.271 540.861 741.223C544.166 741.181 544.175 734.934 540.861 734.976C529.352 735.122 517.844 735.372 506.336 735.562C502.499 735.625 498.662 735.681 494.826 735.728C491.52 735.77 491.511 742.017 494.826 741.976Z"
              fill="#3984F4"
            />
            <path
              id="Vector_48"
              d="M495.241 757.699L549.531 757.136L564.971 756.976C568.83 756.936 568.84 750.936 564.971 750.976L510.681 751.538L495.241 751.699C491.382 751.739 491.372 757.739 495.241 757.699Z"
              fill="#FF6966"
            />
            <path
              id="Vector_49"
              d="M495.914 787.976L544.075 787.39L557.773 787.223C561.196 787.182 561.204 780.934 557.773 780.976L509.611 781.562L495.914 781.728C492.491 781.77 492.482 788.017 495.914 787.976Z"
              fill="#FFB05C"
            />
            <path
              id="Vector_50"
              d="M496.758 801.976L560.734 801.39L578.929 801.223C583.475 801.182 583.487 794.934 578.929 794.976L514.953 795.562L496.758 795.728C492.211 795.77 492.199 802.017 496.758 801.976Z"
              fill="#62FF57"
            />
            <path
              id="Vector_51"
              d="M495.031 772.976L526.66 772.39L535.655 772.223C537.903 772.182 537.909 765.934 535.655 765.976L504.026 766.562L495.031 766.728C492.783 766.77 492.778 773.017 495.031 772.976Z"
              fill="#FFB05C"
            />
            <path
              id="Vector_52"
              d="M492.802 668.003C504.311 667.857 515.818 667.607 527.327 667.417C531.163 667.354 535 667.298 538.837 667.251C542.143 667.209 542.151 660.961 538.837 661.003C527.328 661.149 515.82 661.399 504.312 661.589C500.475 661.652 496.639 661.708 492.802 661.756C489.496 661.797 489.488 668.045 492.802 668.003Z"
              fill="#FF6966"
            />
            <path
              id="Vector_53"
              d="M493.217 683.726L547.507 683.163L562.948 683.003C566.806 682.963 566.816 676.963 562.948 677.003L508.657 677.566L493.217 677.726C489.358 677.766 489.349 683.766 493.217 683.726Z"
              fill="#FFB05C"
            />
            <path
              id="Vector_54"
              d="M493.89 714.003L542.051 713.417L555.749 713.251C559.172 713.209 559.181 706.962 555.749 707.003L507.587 707.589L493.89 707.756C490.467 707.797 490.458 714.045 493.89 714.003Z"
              fill="#3984F4"
            />
            <path
              id="Vector_55"
              d="M494.734 728.003L558.71 727.417L576.905 727.251C581.452 727.209 581.463 720.962 576.905 721.003L512.929 721.589L494.734 721.756C490.187 721.797 490.175 728.045 494.734 728.003Z"
              fill="#FFB05C"
            />
            <path
              id="Vector_56"
              d="M493.007 699.003L524.636 698.417L533.631 698.251C535.879 698.209 535.885 691.962 533.631 692.003L502.003 692.589L493.007 692.756C490.76 692.797 490.754 699.045 493.007 699.003Z"
              fill="#62FF57"
            />
            <path
              id="Vector_57"
              d="M491.483 594C502.991 593.854 514.499 593.604 526.007 593.414C529.844 593.351 533.681 593.295 537.517 593.247C540.823 593.206 540.832 586.958 537.517 587C526.009 587.146 514.501 587.396 502.993 587.586C499.156 587.649 495.319 587.705 491.483 587.753C488.177 587.794 488.168 594.042 491.483 594Z"
              fill="#3984F4"
            />
            <path
              id="Vector_58"
              d="M491.898 609.723L546.188 609.16L561.628 609C565.487 608.96 565.497 602.96 561.628 603L507.338 603.563L491.898 603.723C488.039 603.763 488.029 609.763 491.898 609.723Z"
              fill="#FF6966"
            />
            <path
              id="Vector_59"
              d="M492.571 640L540.732 639.414L554.429 639.247C557.852 639.206 557.861 632.958 554.429 633L506.268 633.586L492.571 633.753C489.148 633.794 489.139 640.042 492.571 640Z"
              fill="#FFB05C"
            />
            <path
              id="Vector_60"
              d="M493.415 654L557.39 653.414L575.585 653.247C580.132 653.206 580.144 646.958 575.585 647L511.61 647.586L493.415 647.753C488.868 647.794 488.856 654.042 493.415 654Z"
              fill="#62FF57"
            />
            <path
              id="Vector_61"
              d="M491.688 625L523.317 624.414L532.312 624.247C534.56 624.206 534.566 617.958 532.312 618L500.683 618.586L491.688 618.753C489.44 618.794 489.434 625.042 491.688 625Z"
              fill="#FFB05C"
            />
          </g>
        </g>
      </g>
      <defs>
        <clipPath id="clip0">
          <rect width="938.759" height="806.748" fill="white" />
        </clipPath>
        <clipPath id="clip1">
          <rect
            width="91.5308"
            height="121.194"
            fill="white"
            transform="translate(199 511.236) rotate(-11.4918)"
          />
        </clipPath>
      </defs>
    </svg>
